<mxfile host="app.diagrams.net" modified="2023-06-29T06:56:00.933Z" agent="Mozilla/5.0 (Windows NT 10.0; Win64; x64) AppleWebKit/537.36 (KHTML, like Gecko) Chrome/114.0.0.0 Safari/537.36" version="21.5.1" etag="3v1fAiZdvDceSnv6H7kX" type="github">
  <diagram name="페이지-1" id="vuluXPVt7j7inmKMXY3f">
    <mxGraphModel>
      <root>
        <mxCell id="0" />
        <mxCell id="1" parent="0" />
      </root>
    </mxGraphModel>
  </diagram>
</mxfile>
